<svg width="1462" height="259" viewBox="0 0 1462 259" fill="none" xmlns="http://www.w3.org/2000/svg">
<path fill-rule="evenodd" clip-rule="evenodd" d="M413.625 58.543C427.292 58.543 438.941 62.08 448.574 69.158C458.206 76.237 464.829 85.619 468.445 97.304V60.256H485.497V195.114H468.445V158.068C464.829 169.764 458.206 179.15 448.574 186.228C438.941 193.307 427.292 196.846 413.625 196.846C401.441 196.846 390.532 194.046 380.899 188.449C371.267 182.853 363.776 174.825 358.424 164.365C353.073 153.906 350.395 141.679 350.395 127.685C350.395 113.529 353.073 101.222 358.424 90.762C363.776 80.313 371.226 72.332 380.777 66.814C390.327 61.298 401.276 58.543 413.625 58.543ZM418.069 73.847C402.921 73.847 390.777 78.662 381.634 88.296C372.503 97.929 367.937 111.059 367.937 127.685C367.937 144.314 372.503 157.445 381.634 167.078C390.777 176.709 402.921 181.524 418.069 181.524C427.618 181.524 436.221 179.304 443.871 174.859C451.53 170.418 457.541 164.119 461.904 155.968C466.265 147.817 468.445 138.391 468.445 127.685C468.445 116.981 466.265 107.56 461.904 99.417C457.541 91.269 451.53 84.964 443.871 80.514C436.221 76.069 427.618 73.847 418.069 73.847Z" fill="white"/>
<path fill-rule="evenodd" clip-rule="evenodd" d="M595.148 58.543C607.497 58.543 618.406 61.298 627.873 66.814C637.342 72.332 644.753 80.313 650.105 90.762C655.456 101.222 658.132 113.529 658.132 127.685C658.132 141.679 655.456 153.906 650.105 164.365C644.753 174.825 637.298 182.853 627.752 188.449C618.202 194.046 607.333 196.846 595.148 196.846C581.316 196.846 569.627 193.307 560.077 186.228C550.527 179.15 543.943 169.764 540.326 158.068V258.836H523.029V60.256H540.326V97.304C543.943 85.619 550.527 76.237 560.077 69.158C569.627 62.08 581.316 58.543 595.148 58.543ZM590.458 73.847C580.908 73.847 572.303 76.069 564.642 80.514C556.992 84.964 551.026 91.269 546.747 99.417C542.468 107.56 540.326 116.981 540.326 127.685C540.326 138.391 542.468 147.817 546.747 155.968C551.026 164.119 556.992 170.418 564.642 174.859C572.303 179.304 580.908 181.524 590.458 181.524C605.768 181.524 617.955 176.709 627.015 167.078C636.066 157.445 640.59 144.314 640.59 127.685C640.59 111.059 636.066 97.929 627.015 88.296C617.955 78.662 605.768 73.847 590.458 73.847Z" fill="white"/>
<path fill-rule="evenodd" clip-rule="evenodd" d="M761.36 58.543C773.711 58.543 784.62 61.298 794.087 66.814C803.556 72.332 810.968 80.313 816.32 90.762C821.669 101.222 824.347 113.529 824.347 127.685C824.347 141.679 821.669 153.906 816.32 164.365C810.968 174.825 803.515 182.853 793.965 188.449C784.416 194.046 773.548 196.846 761.36 196.846C747.53 196.846 735.842 193.307 726.293 186.228C716.741 179.15 710.159 169.764 706.543 158.068V258.836H689.245V60.256H706.543V97.304C710.159 85.619 716.741 76.237 726.293 69.158C735.842 62.08 747.53 58.543 761.36 58.543ZM756.674 73.847C747.125 73.847 738.517 76.069 730.857 80.514C723.208 84.964 717.243 91.269 712.962 99.417C708.683 107.56 706.543 116.981 706.543 127.685C706.543 138.391 708.683 147.817 712.962 155.968C717.243 164.119 723.208 170.418 730.857 174.859C738.517 179.304 747.125 181.524 756.674 181.524C771.984 181.524 784.169 176.709 793.229 167.078C802.28 157.445 806.805 144.314 806.805 127.685C806.805 111.059 802.28 97.929 793.229 88.296C784.169 78.662 771.984 73.847 756.674 73.847Z" fill="white"/>
<path d="M1015.75 58.297H1048.35L1011.55 195.114H973.02L943.635 95.588L913.497 195.114H874.98L838.423 58.297H873.249L895.48 163.998L925.846 58.297H962.647L993.275 163.998L1015.75 58.297Z" fill="white"/>
<path d="M1100.47 84.465C1105.57 75.743 1112.31 68.87 1120.71 63.843C1129.11 58.828 1138.5 56.322 1148.87 56.322V93.611H1138.74C1113.23 93.611 1100.47 105.465 1100.47 129.17V195.114H1065.64V58.297H1100.47V84.465Z" fill="white"/>
<path d="M1164.18 19.012C1164.18 13.416 1166.16 8.85001 1170.11 5.315C1174.07 1.77301 1179.25 0 1185.67 0C1192.09 0 1197.28 1.77301 1201.23 5.315C1205.19 8.85001 1207.16 13.416 1207.16 19.012C1207.16 24.447 1205.19 28.936 1201.23 32.481C1197.28 36.024 1192.09 37.797 1185.67 37.797C1179.25 37.797 1174.07 36.024 1170.11 32.481C1166.16 28.936 1164.18 24.447 1164.18 19.012Z" fill="white"/>
<path d="M1168.14 58.297H1202.96V195.114H1168.14V58.297Z" fill="white"/>
<path d="M1294.1 165.224H1307.67V195.114H1289.4C1274.08 195.114 1262.35 191.413 1254.2 184.007C1246.05 176.591 1241.98 164.244 1241.98 146.96V87.682H1222.96V58.297H1241.98V24.452H1276.8V58.297H1307.43V87.682H1276.8V147.45C1276.8 154.038 1278.12 158.651 1280.75 161.285C1283.39 163.911 1287.84 165.224 1294.1 165.224Z" fill="white"/>
<path fill-rule="evenodd" clip-rule="evenodd" d="M1461.29 121.512C1461.29 124.973 1460.89 128.927 1460.07 133.369H1359.79C1360.28 145.554 1363.57 154.529 1369.67 160.29C1375.76 166.051 1383.33 168.932 1392.39 168.932C1400.46 168.932 1407.17 166.956 1412.51 163.002C1417.86 159.059 1421.28 153.713 1422.76 146.96H1459.56C1457.75 156.51 1453.89 165.069 1447.96 172.64C1442.03 180.219 1434.41 186.148 1425.12 190.427C1415.81 194.706 1405.48 196.846 1394.13 196.846C1380.79 196.846 1368.93 194.007 1358.55 188.328C1348.18 182.648 1340.12 174.538 1334.36 163.998C1328.59 153.458 1325.7 141.025 1325.7 126.705C1325.7 112.376 1328.59 99.904 1334.36 89.292C1340.12 78.668 1348.18 70.556 1358.55 64.962C1368.93 59.365 1380.79 56.566 1394.13 56.566C1407.62 56.566 1419.43 59.365 1429.56 64.962C1439.68 70.556 1447.5 78.255 1453.02 88.051C1458.53 97.845 1461.29 108.999 1461.29 121.512ZM1426.22 118.066C1426.72 106.86 1423.8 98.375 1417.46 92.617C1411.11 86.854 1403.34 83.975 1394.13 83.975C1384.74 83.975 1376.83 86.854 1370.41 92.617C1363.98 98.375 1360.44 106.86 1359.79 118.066H1426.22Z" fill="white"/>
<path d="M99.0325 110.541C100.67 103.446 102.195 97.466 102.313 97.173C102.429 96.939 104.423 96.765 106.709 96.765C109.759 96.765 110.757 96.939 110.581 97.466C110.405 97.878 109.525 101.392 108.646 105.261C107.832 108.835 105.823 117.305 104.042 124.812L103.604 126.661C102.769 130.185 101.841 134.141 100.974 137.832C99.895 142.429 98.9119 146.617 98.3256 149.055L96.5105 157.147H92.4625C90.2376 157.147 88.4186 156.91 88.4186 156.618C88.4186 155.564 90.1775 147.591 93.1106 135.455C94.4855 129.472 96.8194 119.756 98.513 112.705L99.0325 110.541Z" fill="white"/>
<path d="M65.4365 128.42L70.8296 122.556L76.2846 116.695H81.1515C83.8475 116.695 86.0745 116.87 86.0745 117.106C86.0745 117.398 83.9635 119.864 81.3855 122.734C78.8036 125.55 76.6925 128.186 76.6925 128.597C76.6925 128.947 78.9785 131.764 81.7356 134.692L86.7796 140.143H76.1085L72.3555 136.16C70.3056 133.989 67.8986 131.35 67.0215 130.296L65.4365 128.42Z" fill="white"/>
<path d="M114.096 119.567C112.865 118.335 111.868 117.224 111.868 117.047C111.868 116.87 114.155 116.695 117.028 116.695H122.132L127.404 122.383C130.337 125.489 132.682 128.245 132.682 128.537C132.682 128.887 130.454 131.587 127.696 134.633L122.714 140.086L117.263 140.143H111.812L116.677 134.809C119.373 131.937 121.603 129.184 121.718 128.77C121.895 128.011 118.672 124.14 114.096 119.567Z" fill="white"/>
<path fill-rule="evenodd" clip-rule="evenodd" d="M149.544 217.832C164.215 226.343 181.259 231.217 199.441 231.217C254.444 231.217 299.03 186.629 299.03 131.628C299.03 76.627 254.444 32.04 199.441 32.04C181.269 32.04 164.235 36.9076 149.568 45.4092C89.2247 10.0323 9.70058 47.317 0.760514 119.313C-3.6295 154.671 11.2025 189.68 39.6555 211.122C74.0069 237.044 116.879 236.636 149.544 217.832ZM172.998 166.619C167.27 178.627 158.679 189.008 148.108 196.877C143.069 200.581 137.468 203.792 131.321 206.397C104.61 217.715 73.8886 213.922 50.7316 196.446C0.835464 158.792 10.4096 81.245 67.9675 56.86C89.005 47.9476 112.531 48.4067 132.888 57.5414L132.857 57.569C160.334 69.8904 179.713 97.0356 180.819 128.827C181.229 141.803 178.571 154.813 172.998 166.619Z" fill="white"/>
</svg>
