<svg width="601" height="155" viewBox="0 0 601 155" fill="none" xmlns="http://www.w3.org/2000/svg">
<path d="M99.113 20.4H118.113C119.013 20.4 119.813 19.7 119.813 18.7V1.70001C119.813 0.800018 119.013 0 118.113 0H99.113C98.213 0 97.413 0.700012 97.413 1.70001V18.7C97.413 19.6 98.213 20.4 99.113 20.4Z" fill="white"/>
<path d="M65.113 44.8H46.113C45.213 44.8 44.513 44 44.413 43.1V26.1C44.413 25.1 45.213 24.4 46.113 24.4H65.113C66.113 24.4 66.813 25.2 66.813 26.1V43.1C66.813 44 66.013 44.8 65.113 44.8Z" fill="white"/>
<path d="M213.513 58.5C212.913 58 207.513 53.9 195.913 53.9C192.913 53.9 189.813 54.2 186.813 54.7C184.759 40.415 173.552 33.0166 171.667 31.7723C171.533 31.6839 171.446 31.6265 171.413 31.6L168.313 29.8L166.313 32.7C163.813 36.6 161.913 41 160.813 45.5C158.713 54.2 160.013 62.4 164.413 69.4C159.113 72.4 150.513 73.1 148.713 73.2H6.71307C3.01305 73.2 0.0130534 76.2 0.0130534 79.9C-0.186959 92.3 1.91302 104.7 6.21307 116.4C11.113 129.2 18.413 138.7 27.813 144.5C38.413 151 55.7131 154.7 75.2131 154.7C84.0131 154.7 92.813 153.9 101.513 152.3C113.613 150.1 125.213 145.9 135.913 139.8C144.713 134.7 152.613 128.2 159.313 120.6C170.613 107.9 177.313 93.7 182.213 81.1H184.213C196.513 81.1 204.113 76.2 208.313 72C211.113 69.4 213.213 66.2 214.713 62.6L215.613 60L213.513 58.5Z" fill="white"/>
<path fill-rule="evenodd" clip-rule="evenodd" d="M276.213 50.6C276.313 47.5 278.913 45 282.113 45.1C283.713 45.1 285.213 45.7 286.413 46.8C287.513 47.9 288.113 49.4 288.113 51V105.4C287.813 123 273.313 137 255.713 136.7C238.113 136.4 224.113 121.9 224.413 104.3C224.413 97 226.913 90 231.413 84.3C242.413 70.6 262.513 68.4 276.213 79.4V50.6ZM264.013 122.7C268.813 120.6 272.613 116.8 274.613 112C276.713 107.1 276.713 101.5 274.613 96.7C272.613 91.9 268.813 88.1 264.013 86C259.013 83.9 253.413 83.9 248.413 86C243.713 88 239.913 91.8 237.913 96.6C235.813 101.6 235.813 107.2 237.913 112.1C239.913 116.8 243.613 120.7 248.413 122.7C253.413 124.8 259.013 124.8 264.013 122.7Z" fill="white"/>
<path fill-rule="evenodd" clip-rule="evenodd" d="M303.613 81.8C316.013 69.4 336.213 69.4 348.613 81.8C351.613 84.7 354.013 88.2 355.613 92.1C357.213 96 358.013 100.1 358.013 104.3V105.4C357.713 123 343.213 137 325.613 136.7C308.013 136.4 294.013 121.9 294.313 104.3C294.313 95.9 297.613 87.8 303.613 81.8ZM340.213 118.2C342.013 116.4 343.513 114.3 344.513 111.9C346.613 107.1 346.613 101.5 344.513 96.4C343.513 94.1 342.013 91.9 340.213 90.1C338.413 88.3 336.313 86.8 333.913 85.8C328.913 83.7 323.313 83.7 318.313 85.8C313.513 87.9 309.713 91.6 307.713 96.4C305.613 101.4 305.613 107 307.713 111.9C309.713 116.6 313.513 120.5 318.313 122.5C323.313 124.6 328.913 124.6 333.913 122.5C336.213 121.5 338.413 120 340.213 118.2Z" fill="white"/>
<path d="M480.313 78.3C480.313 77.5 480.113 76.7 479.813 76C479.513 75.3001 479.013 74.7002 478.513 74.1003C478.013 73.6003 477.313 73.1 476.613 72.8C475.913 72.5 475.113 72.3 474.313 72.3C473.213 72.3 472.113 72.6 471.113 73.2L437.113 95.3V51.1C437.113 49.5 436.513 48 435.413 46.9C434.313 45.8 432.813 45.1 431.213 45.1C427.913 45.1 425.313 47.7 425.213 51V130.1C425.213 131.7 425.813 133.2 426.913 134.3C428.013 135.5 429.513 136.1 431.113 136.1C432.713 136.1 434.213 135.5 435.313 134.3C436.413 133.2 437.113 131.7 437.013 130.1V109.6L443.913 105.1L470.213 134.6C471.313 135.6 472.713 136.2 474.213 136.1C475.013 136.1 475.813 136 476.513 135.6C477.213 135.3 477.813 134.9 478.413 134.3C478.913 133.7 479.413 133.1 479.713 132.4C480.013 131.7 480.213 130.9 480.213 130.1C480.213 128.6 479.613 127.1 478.613 126L454.213 98.5L478.013 83C479.613 82 480.413 80.2 480.313 78.3Z" fill="white"/>
<path d="M388.013 85.8C385.613 86.8 383.413 88.3 381.613 90.1C373.813 97.8 373.813 110.4 381.613 118.2C383.513 120 385.613 121.5 388.013 122.5C390.513 123.6 393.113 124.1 395.813 124.1C398.113 124.1 400.513 123.7 402.713 122.9C404.913 122 406.913 120.8 408.713 119.2C409.813 118.4 411.113 118 412.513 118H412.913C416.013 118.1 418.513 120.7 418.413 123.9C418.413 125.6 417.713 127.2 416.513 128.3C410.713 133.3 403.313 136 395.613 136C378.113 135.9 363.913 121.7 363.913 104.1C363.913 86.5 378.213 72.2 395.813 72.2C403.513 72 410.913 74.7999 416.613 79.8999C418.013 81 418.713 82.7 418.713 84.3999C418.713 86 418.113 87.6 417.013 88.7C415.913 89.9 414.313 90.5 412.713 90.3999C411.313 90.3999 409.913 90 408.813 89.1C407.013 87.5 404.913 86.2999 402.713 85.3999C400.513 84.5999 398.213 84.2 395.813 84.2C393.113 84.2 390.513 84.8 388.013 85.8Z" fill="white"/>
<path d="M598.413 76.4C597.213 75.3 595.913 74.5 594.413 74C592.713 73.4 590.913 73 589.113 72.8C587.313 72.6 585.513 72.5 583.713 72.5C580.113 72.5 576.413 73.1 573.013 74.4C569.613 75.6 566.513 77.4 563.713 79.6V78.4C563.613 75.1 560.813 72.6 557.513 72.7C554.413 72.8 551.913 75.3 551.813 78.4V130.3C551.913 133.6 554.713 136.1 558.013 136C561.113 135.9 563.613 133.4 563.713 130.3V104.4C563.713 101.7 564.213 99.1 565.313 96.6C566.313 94.2 567.713 92.1 569.613 90.3C571.413 88.5 573.613 87 575.913 86C578.413 85 581.013 84.4 583.713 84.4C586.413 84.4 589.013 84.9 591.513 85.8C592.313 86.2 593.113 86.4 594.013 86.4C594.813 86.4 595.613 86.3 596.313 85.9C597.013 85.6 597.613 85.2 598.213 84.6C598.713 84.1 599.213 83.4 599.513 82.7C599.813 82 600.013 81.2 600.013 80.4C600.113 78.9 599.513 77.5 598.413 76.4Z" fill="white"/>
<path fill-rule="evenodd" clip-rule="evenodd" d="M513.713 72.5C526.513 72.6 538.113 80.3 543.213 92.1C544.713 96 545.513 100.2 545.413 104.5C545.513 106.1 544.913 107.6 543.713 108.7C542.613 109.8 541.113 110.4 539.513 110.4H494.513C495.113 112.4 496.013 114.4 497.313 116.1C498.513 117.8 500.013 119.3 501.713 120.5C503.413 121.8 505.313 122.7 507.313 123.4C509.413 124.1 511.513 124.4 513.713 124.4C516.113 124.5 518.413 124.1 520.613 123.3C522.713 122.6 524.613 121.4 526.313 120L526.413 119.9C526.413 119.83 526.705 119.566 526.949 119.345C527.055 119.249 527.152 119.161 527.213 119.1C529.213 117.2 532.213 116.9 534.513 118.4C537.213 120.3 537.913 124 536.013 126.8C535.713 127.4 535.213 127.9 534.713 128.3L534.513 128.5C528.713 133.5 521.313 136.2 513.713 136.2C496.113 136.2 481.813 121.9 481.813 104.3C481.913 86.7 496.113 72.5 513.713 72.5ZM497.313 92.8C496.013 94.5 495.113 96.4 494.513 98.5H532.813C532.113 96.5 531.213 94.5 529.913 92.8C527.413 89.4 523.913 86.8 519.913 85.5C517.913 84.8 515.713 84.5 513.613 84.5C511.513 84.5 509.313 84.8 507.313 85.5C505.313 86.2 503.413 87.2 501.713 88.4C500.013 89.6 498.513 91.1 497.313 92.8Z" fill="white"/>
<path fill-rule="evenodd" clip-rule="evenodd" d="M579.913 130.7C579.913 131.2 579.613 131.6 579.113 131.7C579.513 131.9 579.813 132.3 579.713 132.7C579.713 133 579.813 133.4 580.013 133.7H579.013C578.963 133.55 578.913 133.375 578.863 133.2C578.813 133.025 578.763 132.85 578.713 132.7C578.613 132.3 578.313 132.1 577.813 132.1H577.413V133.7H576.513V129.6C577.013 129.5 577.613 129.5 578.113 129.5C578.613 129.5 579.113 129.6 579.513 129.8C579.813 130 579.913 130.3 579.913 130.7ZM577.413 131.4H577.913C578.413 131.5 578.913 131.2 578.813 130.8C578.813 130.5 578.513 130.2 577.913 130.2H577.413V131.4Z" fill="white"/>
<path fill-rule="evenodd" clip-rule="evenodd" d="M578.113 127.5C575.813 127.5 574.013 129.4 574.013 131.7C574.013 134 575.913 135.8 578.213 135.8C580.513 135.8 582.313 133.9 582.313 131.7C582.313 129.3 580.413 127.5 578.113 127.5ZM578.113 134.9C576.313 135 574.813 133.6 574.713 131.8C574.613 130 576.013 128.5 577.813 128.4C579.613 128.3 581.113 129.7 581.213 131.5V131.7C581.313 133.4 579.913 134.9 578.113 134.9Z" fill="white"/>
<path d="M38.913 69.1H19.913C19.013 69.1 18.313 68.4 18.213 67.4V50.4C18.213 49.4 19.013 48.7 19.913 48.7H38.913C39.913 48.7 40.613 49.5 40.613 50.4V67.4C40.613 68.4 39.813 69.1 38.913 69.1Z" fill="white"/>
<path d="M46.113 69.1H65.113C66.013 69.1 66.813 68.4 66.813 67.4V50.4C66.813 49.5 66.113 48.7 65.113 48.7H46.113C45.213 48.7 44.413 49.4 44.413 50.4V67.4C44.513 68.4 45.213 69.1 46.113 69.1Z" fill="white"/>
<path d="M91.813 69.1H72.813C71.813 69.1 71.113 68.4 71.113 67.4V50.4C71.113 49.4 71.913 48.7 72.813 48.7H91.813C92.813 48.7 93.5131 49.5 93.5131 50.4V67.4C93.5131 68.4 92.713 69.1 91.813 69.1Z" fill="white"/>
<path d="M99.113 69.1H118.113C119.013 69.1 119.813 68.4 119.813 67.4V50.4C119.813 49.5 119.113 48.7 118.113 48.7H99.113C98.213 48.7 97.413 49.4 97.413 50.4V67.4C97.413 68.4 98.213 69.1 99.113 69.1Z" fill="white"/>
<path d="M72.813 44.8H91.813C92.713 44.8 93.5131 44 93.5131 43.1V26.1C93.5131 25.2 92.813 24.4 91.813 24.4H72.813C71.913 24.4 71.113 25.1 71.113 26.1V43.1C71.113 44 71.813 44.8 72.813 44.8Z" fill="white"/>
<path d="M118.113 44.8H99.113C98.213 44.8 97.413 44 97.413 43.1V26.1C97.413 25.1 98.213 24.4 99.113 24.4H118.113C119.013 24.4 119.813 25.2 119.813 26.1V43.1C119.813 44 119.013 44.8 118.113 44.8Z" fill="white"/>
<path d="M144.613 69.1H125.613C124.713 69.1 124.013 68.4 123.913 67.4V50.4C123.913 49.4 124.713 48.7 125.613 48.7H144.613C145.613 48.7 146.313 49.5 146.313 50.4V67.4C146.313 68.4 145.513 69.1 144.613 69.1Z" fill="white"/>
</svg>
